<?xml version="1.0" encoding="utf-8"?>
<!-- Generator: Adobe Illustrator 16.0.0, SVG Export Plug-In . SVG Version: 6.00 Build 0)  -->
<!DOCTYPE svg PUBLIC "-//W3C//DTD SVG 1.1//EN" "http://www.w3.org/Graphics/SVG/1.1/DTD/svg11.dtd">
<svg version="1.1" id="Layer_1" xmlns="http://www.w3.org/2000/svg" xmlns:xlink="http://www.w3.org/1999/xlink" x="0px" y="0px"
	 width="200px" height="48px" viewBox="-54.073 -9.469 200 48" enable-background="new -54.073 -9.469 200 48" xml:space="preserve"
	>
<g id="Capa_1" display="none">
</g>
<g id="b29_vegetable">
	<path fill="#259954" d="M9.038,2.307c-1.07,0.892,0.516,5.321-3.205,2.551c0,0-8.077,5.673-12.357,8.181
		c-0.796,0.466,0.104,3.622-2.401,1.383l-12.78,6.822c-2.653,4.813-2.505,1.291-3.78,1.95c-5.882,3.083-11.987,6.266-18.734,10.637
		c7.22,3.792,14.991,4.72,22.634,4.32c1.094-0.071,2.631-1.872,3.729-2.013c1.104-0.139,1.771,1.382,2.867,1.169
		c4.883-0.93,9.691-2.553,14.245-4.908c0.505-0.259,0.998-0.524,1.489-0.795c-1.398-4.197,2.124-1.246,3.171-1.937
		c4.916-3.274,9.326-7.576,12.585-12.661c0.521-0.813-0.098-3.021,0.363-3.879c0.535-0.99,2.141-0.636,2.582-1.679
		c2.773-6.556,3.547-13.85,1.408-20.527C16.507-4.508,12.761-0.818,9.038,2.307z"/>
	<polygon display="none" fill="#259954" points="35.641,-27.979 25.78,-18.039 15.331,-7.384 21.155,-9.639 21.643,-0.239 
		29.028,-18.339 37.132,-26.501 	"/>
</g>
<circle fill="#E1F5C4" stroke="#259954" stroke-miterlimit="10" cx="-30.423" cy="24.765" r="8.5"/>
<circle fill="#E1F5C4" stroke="#259954" stroke-miterlimit="10" cx="-10.756" cy="16.265" r="8.5"/>
<circle fill="#E1F5C4" stroke="#259954" stroke-miterlimit="10" cx="6.078" cy="3.864" r="8.499"/>
<text transform="matrix(0.2868 0.4437 -0.8398 0.5428 -15.1287 25.4995)" display="none" fill="#E1F5C4" font-family="'MyriadPro-Regular'" font-size="65.8714">3</text>
<text transform="matrix(0.6215 0 0 1 29.739 36.4312)" fill="#259954" font-family="'TimesNewRomanPSMT'" font-size="65.8714">3 Peas</text>
</svg>
