<?xml version="1.0" encoding="utf-8"?>
<!-- Generator: Adobe Illustrator 16.0.0, SVG Export Plug-In . SVG Version: 6.00 Build 0)  -->
<!DOCTYPE svg PUBLIC "-//W3C//DTD SVG 1.1//EN" "http://www.w3.org/Graphics/SVG/1.1/DTD/svg11.dtd">
<svg version="1.1" xmlns="http://www.w3.org/2000/svg" xmlns:xlink="http://www.w3.org/1999/xlink" x="0px" y="0px" width="50px"
	 height="50px" viewBox="0 -10 50 50" enable-background="new 0 -10 50 50" xml:space="preserve">
<g id="svg12257" xmlns:dc="http://purl.org/dc/elements/1.1/" xmlns:svg="http://www.w3.org/2000/svg" xmlns:rdf="http://www.w3.org/1999/02/22-rdf-syntax-ns#" xmlns:cc="http://web.resource.org/cc/" xmlns:sodipodi="http://sodipodi.sourceforge.net/DTD/sodipodi-0.dtd" xmlns:inkscape="http://www.inkscape.org/namespaces/inkscape" sodipodi:docname="Simple icon time.svg" sodipodi:docbase="D:\Home\Wikipedia" sodipodi:version="0.32" inkscape:version="0.44">
	
		<sodipodi:namedview  guidetolerance="10" inkscape:cx="27.142857" inkscape:cy="44.285714" inkscape:zoom="1.5795652" gridtolerance="10000" objecttolerance="10" borderopacity="1.0" bordercolor="#666666" pagecolor="#ffffff" id="base" inkscape:window-height="682" inkscape:current-layer="layer1" inkscape:pageopacity="0.0" inkscape:document-units="px" inkscape:pageshadow="2" inkscape:window-y="-4" inkscape:window-x="-4" inkscape:window-width="1024">
		</sodipodi:namedview>
	<g id="layer1" transform="translate(-306.4286,-335.2193)" inkscape:label="Layer 1" inkscape:groupmode="layer">
		<g id="g1960" transform="translate(131.4286,99.34979)">
			<path id="path1948" fill="#E67E22" d="M200.062,230.62c-11.188,0-20.312,9.125-20.312,20.312
				c0,11.188,9.125,20.312,20.312,20.312c11.188,0,20.312-9.125,20.312-20.312C220.375,239.744,211.25,230.62,200.062,230.62z
				 M200.062,266.731 M200.062,235.134"/>
			<path id="path1950" fill="#FFFFFF" d="M200.371,234.594c-1.362,0.021-2.45,1.143-2.428,2.505v16.923
				c-0.011,0.902,0.472,1.74,1.26,2.182c0.787,0.443,1.753,0.418,2.518-0.061l8.983-5.513c0.782-0.446,1.258-1.284,1.242-2.184
				c-0.016-0.901-0.519-1.722-1.315-2.142c-0.797-0.419-1.76-0.372-2.51,0.125l-5.244,3.2v-12.529
				c0.01-0.667-0.25-1.311-0.723-1.783C201.682,234.844,201.038,234.583,200.371,234.594z"/>
		</g>
	</g>
</g>
<g id="Layer_2">
</g>
</svg>
