<?xml version="1.0" encoding="utf-8"?>
<!-- Generator: Adobe Illustrator 16.0.0, SVG Export Plug-In . SVG Version: 6.00 Build 0)  -->
<!DOCTYPE svg PUBLIC "-//W3C//DTD SVG 1.1//EN" "http://www.w3.org/Graphics/SVG/1.1/DTD/svg11.dtd">
<svg version="1.1" id="Layer_1" xmlns="http://www.w3.org/2000/svg" xmlns:xlink="http://www.w3.org/1999/xlink" x="0px" y="0px"
	 width="50px" height="50px" viewBox="653.669 2023 50 50" enable-background="new 653.669 2023 50 50" xml:space="preserve">
<title>Google Maps Icon - Blank</title>
<g>
	<title>Layer 1</title>
	<path id="svg_2" fill="#E67E22" d="M678.897,2073c-1.093-5.425-3.02-9.939-5.354-14.124c-1.731-3.104-3.737-5.968-5.592-8.978
		c-0.62-1.005-1.155-2.066-1.75-3.109c-1.19-2.085-2.155-4.502-2.093-7.638c0.059-3.064,0.935-5.521,2.199-7.531
		c2.078-3.305,5.56-6.015,10.23-6.727c3.819-0.583,7.4,0.401,9.938,1.902c2.075,1.229,3.682,2.866,4.903,4.797
		c1.275,2.017,2.153,4.398,2.227,7.504c0.038,1.592-0.22,3.067-0.583,4.288c-0.367,1.238-0.958,2.273-1.484,3.378
		c-1.026,2.156-2.313,4.133-3.604,6.11C684.089,2058.763,680.479,2064.771,678.897,2073z"/>
</g>
<circle fill="#FFFFFF" cx="678.75" cy="2040" r="6.5"/>
</svg>
