<?xml version="1.0" encoding="utf-8"?>
<!-- Generator: Adobe Illustrator 16.0.0, SVG Export Plug-In . SVG Version: 6.00 Build 0)  -->
<!DOCTYPE svg PUBLIC "-//W3C//DTD SVG 1.1//EN" "http://www.w3.org/Graphics/SVG/1.1/DTD/svg11.dtd">
<svg version="1.1" id="Layer_1" xmlns="http://www.w3.org/2000/svg" xmlns:xlink="http://www.w3.org/1999/xlink" x="0px" y="0px"
	 width="50px" height="50px" viewBox="12.044 49.818 50 50" enable-background="new 12.044 49.818 50 50" xml:space="preserve">
<path id="path3480_1_" fill="#E67E22" d="M29.033,50.089c0,0-10.79,0.143-10.651,9.917c0.141,9.775,2.103,18.418,5.326,23.235
	c3.223,4.815,11.49,17.423,20.88,16.149c0,0,4.624-0.992,8.126-3.259l-11.351-8.926c0,0-3.361,2.124-5.465-0.708
	c-2.103-2.833-8.688-16.008-8.688-16.008s-1.821-4.251,2.242-6.093L29.033,50.089z"/>
<path id="path3482_1_" fill="#E67E22" d="M30.295,50.089c0,0,0.841-0.281,2.381,0.568c1.542,0.849,1.542,1.558,1.542,1.558
	l0.14,9.775c0,0-0.421,0.567-0.981,1.133c-0.561,0.567-2.382,1.417-2.663,0.85C30.435,63.407,30.295,50.089,30.295,50.089z"/>
<path id="path3484_1_" fill="#E67E22" d="M42.308,86.161l3.12-1.646c0,0,0.701-0.141,1.822,0.565
	c1.121,0.711,7.007,5.386,7.007,5.386s0.979,0.851,0.699,1.841c-0.279,0.992-0.979,3.116-0.979,3.116L42.308,86.161z"/>
</svg>
