<?xml version="1.0" encoding="utf-8"?>
<!-- Generator: Adobe Illustrator 16.0.0, SVG Export Plug-In . SVG Version: 6.00 Build 0)  -->
<!DOCTYPE svg PUBLIC "-//W3C//DTD SVG 1.1//EN" "http://www.w3.org/Graphics/SVG/1.1/DTD/svg11.dtd">
<svg version="1.1" id="Layer_1" xmlns:sketch="http://www.bohemiancoding.com/sketch/ns"
	 xmlns="http://www.w3.org/2000/svg" xmlns:xlink="http://www.w3.org/1999/xlink" x="0px" y="0px" width="50px" height="50px"
	 viewBox="5 10 50 50" enable-background="new 5 10 50 50" xml:space="preserve">
<title>Twitter</title>
<description>Created with Sketch (http://www.bohemiancoding.com/sketch)</description>
<g id="Page-1" sketch:type="MSPage">
	<g id="Twitter" sketch:type="MSArtboardGroup">
		<g sketch:type="MSLayerGroup">
			<path sketch:type="MSShapeGroup" fill="#4099FF" d="M5,34.75C5,20.805,16.321,9.5,30.287,9.5
				c13.965,0,25.286,11.305,25.286,25.25C55.573,48.695,44.252,60,30.287,60C16.321,60,5,48.695,5,34.75z"/>
			<path id="Path" sketch:type="MSShapeGroup" fill="#FFFFFF" d="M29.661,29.606l0.053,0.873l-0.883-0.106
				c-3.215-0.41-6.023-1.801-8.408-4.137l-1.166-1.159l-0.3,0.856c-0.636,1.908-0.229,3.923,1.095,5.277
				c0.707,0.75,0.547,0.856-0.671,0.41c-0.424-0.143-0.795-0.249-0.831-0.195c-0.124,0.125,0.301,1.747,0.636,2.389
				c0.459,0.892,1.396,1.765,2.42,2.283l0.866,0.409l-1.025,0.018c-0.989,0-1.024,0.019-0.918,0.394
				c0.354,1.158,1.749,2.389,3.303,2.924l1.095,0.374l-0.954,0.57c-1.413,0.82-3.073,1.284-4.733,1.319
				c-0.795,0.019-1.448,0.09-1.448,0.144c0,0.178,2.155,1.177,3.409,1.568c3.762,1.159,8.23,0.66,11.585-1.318
				c2.385-1.409,4.77-4.209,5.882-6.92c0.601-1.443,1.201-4.082,1.201-5.349c0-0.82,0.054-0.927,1.042-1.907
				c0.583-0.571,1.131-1.195,1.236-1.373c0.177-0.339,0.159-0.339-0.742-0.036c-1.501,0.535-1.713,0.464-0.972-0.338
				c0.549-0.571,1.202-1.605,1.202-1.908c0-0.054-0.265,0.036-0.565,0.196c-0.317,0.178-1.024,0.446-1.554,0.606l-0.954,0.303
				l-0.865-0.588c-0.478-0.321-1.147-0.678-1.501-0.785c-0.901-0.25-2.278-0.214-3.092,0.071
				C30.896,25.273,29.502,27.341,29.661,29.606z"/>
			<path id="reflec" sketch:type="MSShapeGroup" display="none" fill-opacity="0.08" d="M55.573,34.75
				C55.573,48.695,44.252,60,30.287,60c-5.18,0-9.996-1.555-14.005-4.223l28.974-41.379C51.513,18.995,55.573,26.398,55.573,34.75z"
				/>
		</g>
	</g>
</g>
</svg>
